<?xml version="1.0" encoding="utf-8"?>
<!-- Generator: Adobe Illustrator 22.1.0, SVG Export Plug-In . SVG Version: 6.00 Build 0)  -->
<svg version="1.1" id="Ebene_1" xmlns="http://www.w3.org/2000/svg" xmlns:xlink="http://www.w3.org/1999/xlink" x="0px" y="0px"
	 viewBox="0 0 570.2 59" style="enable-background:new 0 0 570.2 59;" xml:space="preserve">
<style type="text/css">
	.st0{fill:#E30F1B;}
	.st1{fill:#11448F;}
</style>
<g>
	<path class="st0" d="M80.3,6.7c0-3.8,2.5-6.4,6.4-6.4s6.4,2.6,6.4,6.4v45.5c0,3.8-2.5,6.4-6.4,6.4s-6.4-2.6-6.4-6.4V6.7z"/>
	<path class="st0" d="M103.9,7.8c0-5.3,2.6-7.5,8.1-7.5c2.7,0,5,1,6.4,3.4l22.5,36.2h0.2V6.5c0-4.1,2.3-6.2,6.2-6.2
		c3.8,0,6.2,2,6.2,6.2v44.2c0,5.1-2.2,8-7.6,8c-4.1,0-5.4-0.9-7-3.4l-22.3-35.2h-0.3v32.5c0,4.1-2.3,6.2-6.2,6.2
		c-3.8,0-6.2-2-6.2-6.2C103.9,52.6,103.9,7.8,103.9,7.8z"/>
	<path class="st0" d="M173.7,12.1h-9.1c-3.7,0-6.6-1.9-6.6-5.4s3-5.4,6.6-5.4h31.1c3.7,0,6.6,1.9,6.6,5.4s-3,5.4-6.6,5.4h-9.1v40.1
		c0,3.8-2.5,6.4-6.4,6.4s-6.4-2.6-6.4-6.4V12.1H173.7z"/>
	<path class="st0" d="M207,8.8c0-5.7,3-7.5,7.5-7.5h28.1c3.8,0,6.5,1.1,6.5,5.2s-2.7,5.2-6.5,5.2h-22.8v12.2h19.8c3.4,0,6,0.9,6,4.9
		s-2.7,4.9-6,4.9h-19.8v13.6h23.5c3.8,0,6.5,1.1,6.5,5.2s-2.7,5.2-6.5,5.2h-28.8c-4.5,0-7.5-1.8-7.5-7.5V8.8z"/>
	<path class="st0" d="M268.2,26.3H279c4.9,0,9.7-1.3,9.7-7.6c0-6-3.7-7.6-9.3-7.6h-11.2V26.3z M255.4,8.8c0-5.7,3-7.5,7.5-7.5h19.4
		c15.3,0,19.3,8.4,19.3,15.6c0,6.1-3.6,12.1-9.7,13.5v0.2c6.6,0.9,7.7,5.7,7.7,11.4c0,6.5,1.7,8.9,1.7,11.6c0,3-3.1,5-6,5
		c-7,0-7.6-6.8-7.6-9.1c0-9.9-1.8-13.8-8.8-13.8h-10.7v16.5c0,3.8-2.5,6.4-6.4,6.4s-6.4-2.6-6.4-6.4V8.8z"/>
	<path class="st1" d="M477.1,26.3h10.8c4.9,0,9.7-1.3,9.7-7.6c0-6-3.7-7.6-9.3-7.6h-11.2V26.3z M464.2,8.8c0-5.7,3-7.5,7.5-7.5h19.4
		c15.3,0,19.3,8.4,19.3,15.6c0,6.1-3.6,12.1-9.7,13.5v0.2c6.6,0.9,7.7,5.7,7.7,11.4c0,6.5,1.7,8.9,1.7,11.6c0,3-3.1,5-6,5
		c-7,0-7.6-6.8-7.6-9.1c0-9.9-1.8-13.8-8.8-13.8H477v16.5c0,3.8-2.5,6.4-6.4,6.4s-6.4-2.6-6.4-6.4V8.8z"/>
	<path class="st1" d="M339.6,25c11.7,2.7,14.7,9.6,14.7,16.2c0,10.2-7.7,17.8-23.2,17.8c-16.3,0-23.5-8.1-23.5-14.2
		c0-3.1,2.3-5.3,5.4-5.3c7,0,5.2,10.2,18.1,10.2c6.7,0,10.3-3.7,10.3-7.4c0-2.3-1.1-4.8-5.5-5.9l-14.5-3.7
		c-11.7-3-13.8-9.4-13.8-15.4c0-12.5,11.6-17.2,22.5-17.2c10,0,21.8,5.6,21.8,13.1c0,3.2-2.7,5.1-5.9,5.1c-5.9,0-4.9-8.4-16.8-8.4
		c-5.9,0-9.2,2.7-9.2,6.6s4.7,5.2,8.8,6.1L339.6,25z"/>
	<path class="st1" d="M372.8,27.1h10c5.2,0,9-3.1,9-8c0-5.6-4-8-10.3-8h-8.7V27.1z M360,8.8c0-5.7,3-7.5,7.5-7.5h17.6
		c10.8,0,19.5,5.3,19.5,17.8c0,10.2-7.1,17.8-19.6,17.8h-12.3v15.3c0,3.8-2.5,6.4-6.4,6.4s-6.4-2.6-6.4-6.4L360,8.8L360,8.8z"/>
	<path class="st1" d="M432.8,48.6c11.7,0,11.7-9.1,11.7-19.9s-1.2-18.4-11.7-18.4s-11.7,7.7-11.7,18.5S420.7,48.6,432.8,48.6
		 M432.8,0c18.4,0,24.5,12.3,24.5,28.8c0,15.9-5.3,30.2-24.5,30.2c-20.2,0-24.5-13.1-24.5-30.2C408.3,12.3,414.3,0,432.8,0"/>
	<path class="st1" d="M527.5,12.1h-9.1c-3.7,0-6.6-1.9-6.6-5.4s3-5.4,6.6-5.4h31.1c3.7,0,6.6,1.9,6.6,5.4s-3,5.4-6.6,5.4h-9.2v40.1
		c0,3.8-2.5,6.4-6.4,6.4s-6.4-2.6-6.4-6.4L527.5,12.1L527.5,12.1z"/>
	<path class="st1" d="M563.9,6.3v-2h1.7c0.3,0,0.6,0,0.9,0.2c0.3,0.2,0.5,0.5,0.5,0.8s-0.1,0.5-0.3,0.7c-0.4,0.3-0.8,0.3-1.3,0.3
		H563.9z M567.8,9.4l-1.3-2.6c0.8-0.2,1.2-0.8,1.2-1.5c0-0.5-0.3-1-0.7-1.2c-0.4-0.3-1-0.3-1.5-0.3H563v5.7h0.8V6.9h1.7l1.2,2.5
		C566.7,9.4,567.8,9.4,567.8,9.4z"/>
	<path class="st1" d="M565.2,2.6c-2.3,0-4.1,1.9-4.1,4.1c0,2.3,1.9,4.1,4.1,4.1c2.3,0,4.1-1.9,4.1-4.1
		C569.3,4.4,567.4,2.6,565.2,2.6 M565.2,11.7c-2.8,0-5-2.2-5-5s2.2-5,5-5s5,2.2,5,5C570.1,9.4,567.9,11.7,565.2,11.7"/>
	<path class="st0" d="M0,13.3c0-7,5.6-12.6,12.6-12.6s12.6,5.6,12.6,12.6s-5.6,12.6-12.6,12.6S0,20.3,0,13.3"/>
	<path class="st1" d="M12.6,58.1c-1.7,0-3.1-1.5-3.1-3.4V34c0-1.9,1.3-3.4,3.1-3.4C32.4,30.6,34,3.7,62.5,3.7c1.7,0,3.1,1.5,3.1,3.4
		v20.5c0,1.9-1.4,3.4-3.1,3.4C43.1,31,41.9,58.1,12.6,58.1"/>
</g>
</svg>
